<svg width="24" height="24" viewBox="0 0 24 24" fill="none" xmlns="http://www.w3.org/2000/svg">
<g clip-path="url(#clip0_4147_15816)">
<path d="M16.8927 16.8008L15.9677 18.5401L20.4965 17.7997C19.5826 17.3413 18.3454 17.0137 16.8927 16.8008ZM5.22628 17.18C3.12868 17.7332 1.7998 18.6397 1.7998 19.9861C1.80067 20.2759 1.86403 20.5622 1.98556 20.8253L9.25396 19.6373L5.22628 17.18ZM22.0294 19.2008L11.9134 20.8496L14.5812 23.8846C18.9622 23.4922 22.1998 22.0928 22.1998 19.9861C22.1998 19.7053 22.1393 19.4441 22.0294 19.2008ZM10.2041 21.1342L3.36892 22.2514C5.17564 23.3705 8.36452 24.0008 11.9998 24.0008C12.2201 24.0008 12.4354 23.9945 12.6524 23.99L10.2041 21.1342Z" fill="black"/>
<path d="M12.0007 0C8.08867 0 4.87891 3.19992 4.87891 7.10304C4.87891 8.60352 5.35579 10.0013 6.16099 11.1506L10.7771 19.1306L10.7968 19.1563C10.979 19.3942 11.1568 19.5818 11.3656 19.7198C11.5744 19.8581 11.8336 19.9406 12.088 19.9152C12.5963 19.8643 12.9076 19.5053 13.2031 19.105L13.2189 19.0843L18.3151 10.4105L18.3179 10.405C18.4375 10.189 18.5258 9.96912 18.6007 9.75504C18.9441 8.91303 19.121 8.0124 19.1215 7.10304C19.1215 3.19992 15.9127 0 12.0007 0ZM12.0007 4.0908C13.6977 4.0908 15.0223 5.41296 15.0223 7.1028C15.0223 8.79312 13.6977 10.1148 12.0007 10.1148C10.3034 10.1148 8.97811 8.79288 8.97811 7.1028C8.97811 5.4132 10.3036 4.0908 12.0007 4.0908Z" fill="black"/>
</g>
<defs>
<clipPath id="clip0_4147_15816">
<rect width="24" height="24" fill="white"/>
</clipPath>
</defs>
</svg>
