<svg width="1209" height="399" viewBox="0 0 1209 399" fill="none" xmlns="http://www.w3.org/2000/svg">
<path d="M359.525 163.599C355.713 163.576 351.938 164.411 348.444 166.048C344.949 167.685 341.81 170.09 339.228 173.108L338.361 165.167H321.275V266.726H339.542V231.391C341.946 233.946 344.862 235.874 348.066 237.029C351.936 238.468 356.002 239.199 360.097 239.193C370.78 239.193 379.323 235.024 385.153 228.155C391.125 220.747 394.299 211.199 394.047 201.396C394.231 191.466 390.832 181.847 384.563 174.557C381.316 170.973 377.416 168.15 373.107 166.264C368.799 164.379 364.174 163.471 359.525 163.599ZM358.344 182.676C360.715 182.585 363.077 183.025 365.281 183.968C367.486 184.911 369.484 186.337 371.149 188.155C374.191 191.778 375.834 196.514 375.743 201.396C375.789 206.311 374.056 211.053 370.909 214.617C367.542 218.131 363.035 220.097 358.344 220.097C353.653 220.097 349.146 218.131 345.778 214.617C342.628 211.056 340.9 206.311 340.963 201.396C340.857 196.515 342.495 191.776 345.539 188.155C347.205 186.339 349.203 184.915 351.407 183.972C353.611 183.029 355.973 182.587 358.344 182.676Z" fill="black"/>
<path d="M777.941 239.648C777.941 240.026 777.941 240.383 777.941 240.78C778.01 242.84 777.629 244.888 776.828 246.761C776.027 248.633 774.828 250.277 773.328 251.559C769.969 254.22 765.872 255.577 761.704 255.41C757.428 255.507 753.243 254.076 749.803 251.341C748.284 250.108 747.051 248.513 746.203 246.68C745.354 244.847 744.913 242.827 744.914 240.78V239.648H725.817V240.78C725.728 245.484 726.607 250.152 728.39 254.448C730.173 258.745 732.816 262.564 736.131 265.634C743.35 271.919 752.422 275.215 761.704 274.924C771.871 274.924 780.746 271.708 787.093 265.793C790.38 262.677 792.988 258.821 794.732 254.497C796.477 250.174 797.314 245.491 797.186 240.78C797.186 240.403 797.186 240.026 797.186 239.648H777.941Z" fill="black"/>
<path d="M922.709 236.235H923.798H946.732V145.534H922.709V236.235Z" fill="#2286FE"/>
<path d="M1028.29 145.534H957.895V164.889H981.881V236.235H1005.7V164.889H1029.28V145.534H1028.29Z" fill="#2286FE"/>
<path d="M221.639 246.12V272.066L234.794 280.245V254.259L221.639 246.12Z" fill="#2286FE"/>
<path d="M234.795 143.191L179.645 177.455V246.001L200.531 258.964V190.438L234.795 169.177L268.8 190.299L289.576 177.217L234.795 143.191Z" fill="#2286FE"/>
<path d="M289.945 177.475V246.002L234.795 280.265V254.28L269.059 233.019V190.458L268.8 190.299L289.576 177.217L289.945 177.475Z" fill="#4D9DFC"/>
<path d="M247.932 203.58V219.898L234.795 228.037V211.719L247.821 203.521L247.932 203.58Z" fill="#4D9DFC"/>
<path d="M247.839 203.5L234.794 195.421L221.639 203.56V219.898L234.794 228.037V211.719L247.839 203.5Z" fill="#2087FF"/>
<g clip-path="url(#clip0_2082_1130)">
<path d="M454.788 166.258L454.437 172.59C451.931 169.636 448.865 167.293 445.448 165.718C442.03 164.143 438.338 163.373 434.621 163.459H434.307C425.257 163.139 416.44 166.588 409.693 173.087C403.42 179.479 399.619 188.968 399.619 201.256C399.619 213.544 403.309 223.35 409.38 229.842C415.45 236.333 424.141 239.628 433.901 239.609H434.252C438.533 239.467 442.739 238.358 446.596 236.353C449.677 234.816 452.39 232.541 454.53 229.703L455.139 237.484H472.39V165.166H454.843L454.788 166.258ZM453.995 201.315C454.076 206.372 452.488 211.297 449.511 215.211C447.843 217.259 445.772 218.88 443.448 219.959C441.125 221.037 438.607 221.545 436.078 221.445C431.288 221.583 426.643 219.669 423.163 216.125C419.75 212.078 417.86 206.809 417.86 201.345C417.86 195.881 419.75 190.613 423.163 186.566C426.664 183.067 431.301 181.185 436.078 181.325C438.607 181.225 441.125 181.733 443.448 182.811C445.772 183.889 447.843 185.511 449.511 187.558C452.466 191.432 454.054 196.304 453.995 201.315Z" fill="black"/>
<path d="M536.342 170.327C531.518 165.718 525.265 163.219 518.813 163.32C515.341 163.189 511.878 163.804 508.628 165.126C505.665 166.479 503.083 168.641 501.137 171.399L500.215 165.166H483.295V237.564H501.562V199.41C501.562 193.196 503.407 189.146 506.137 186.566C509.127 183.99 512.883 182.664 516.71 182.834C518.7 182.73 520.689 183.055 522.561 183.787C524.434 184.52 526.151 185.647 527.615 187.102L528.648 188.035L536.895 170.923L536.342 170.327Z" fill="black"/>
<path d="M591.585 166.258L591.234 172.59C588.727 169.637 585.661 167.295 582.244 165.72C578.826 164.145 575.135 163.374 571.418 163.459H571.104C562.053 163.139 553.237 166.588 546.49 173.087C540.199 179.479 536.416 188.968 536.416 201.256C536.416 213.544 540.106 223.35 546.177 229.842C552.247 236.333 560.938 239.628 570.698 239.609H571.03C575.318 239.467 579.529 238.358 583.393 236.353C586.474 234.816 589.187 232.541 591.327 229.703L591.936 237.484H609.187V165.166H591.64L591.585 166.258ZM590.792 201.315C590.867 206.375 589.271 211.298 586.289 215.211C584.626 217.259 582.559 218.882 580.238 219.96C577.917 221.039 575.402 221.546 572.875 221.445C568.086 221.576 563.443 219.664 559.96 216.125C558.19 214.172 556.807 211.852 555.897 209.306C554.987 206.76 554.567 204.041 554.664 201.315C554.561 198.598 554.977 195.886 555.888 193.349C556.799 190.812 558.185 188.503 559.96 186.566C563.461 183.067 568.098 181.185 572.875 181.325C575.402 181.224 577.917 181.731 580.238 182.809C582.559 183.888 584.626 185.51 586.289 187.558C589.269 191.422 590.884 196.295 590.847 201.315H590.792Z" fill="black"/>
<path d="M671.608 135.906V172.333C669.34 169.778 666.608 167.751 663.582 166.378C659.717 164.514 655.546 163.495 651.312 163.38C641.588 163.38 633.008 166.577 626.864 172.969C620.72 179.361 617.104 188.85 617.104 201.177C617.104 212.929 620.794 222.438 627.012 228.969C633.698 235.67 642.566 239.271 651.699 238.994C655.834 239.06 659.934 238.18 663.729 236.414C666.913 234.884 669.719 232.572 671.922 229.664L672.771 237.565H689.875V135.906H671.608ZM652.769 220.671C650.484 220.708 648.215 220.252 646.095 219.332C643.975 218.411 642.048 217.045 640.426 215.312C638.765 213.442 637.464 211.238 636.596 208.826C635.728 206.414 635.312 203.842 635.37 201.257C635.282 198.656 635.685 196.062 636.554 193.633C637.423 191.204 638.74 188.989 640.426 187.123C643.745 183.717 648.184 181.868 652.769 181.981C657.413 181.945 661.89 183.845 665.261 187.282C668.647 191.065 670.538 196.114 670.538 201.366C670.538 206.619 668.647 211.667 665.261 215.451C661.88 218.86 657.404 220.731 652.769 220.671Z" fill="black"/>
<path d="M701.166 166.04V237.485H719.433V164.869H701.166V166.04Z" fill="black"/>
<path d="M717.549 138.129C715.512 136.308 712.947 135.312 710.298 135.312C707.649 135.312 705.084 136.308 703.047 138.129C701.99 139.227 701.15 140.543 700.576 141.997C700.003 143.452 699.707 145.016 699.707 146.596C699.707 148.176 700.003 149.74 700.576 151.195C701.15 152.649 701.99 153.965 703.047 155.063C705.084 156.884 707.649 157.88 710.298 157.88C712.947 157.88 715.512 156.884 717.549 155.063C718.606 153.965 719.446 152.649 720.019 151.195C720.593 149.74 720.889 148.176 720.889 146.596C720.889 145.016 720.593 143.452 720.019 141.997C719.446 140.543 718.606 139.227 717.549 138.129Z" fill="black"/>
<path d="M878.943 164.114C874.677 163.987 870.442 164.939 866.581 166.894C862.869 168.947 859.697 171.971 857.355 175.688C855.638 171.995 852.941 168.935 849.606 166.894C846.019 164.798 841.988 163.737 837.908 163.817C834.412 163.791 830.952 164.57 827.759 166.1C825.253 167.302 823.052 169.133 821.338 171.44L820.434 164.968H803.496V237.564H821.763V198.834C821.69 194.687 822.897 190.631 825.195 187.301C826.288 185.757 827.701 184.51 829.323 183.658C830.944 182.807 832.727 182.375 834.531 182.397C836.304 182.346 838.061 182.763 839.65 183.611C841.239 184.459 842.611 185.712 843.646 187.261C845.788 190.672 846.885 194.719 846.783 198.834V237.564H865.049V198.834C864.976 194.717 866.228 190.699 868.592 187.46C869.734 185.943 871.181 184.725 872.823 183.897C874.466 183.068 876.262 182.651 878.076 182.675C879.739 182.584 881.396 182.956 882.886 183.756C884.376 184.556 885.649 185.756 886.582 187.241C888.497 190.644 889.435 194.581 889.276 198.556V237.564H907.542V198.556C907.542 187.876 905.236 179.281 900.402 173.306C895.567 167.33 888.39 164.114 878.943 164.114Z" fill="black"/>
<path d="M761.501 161.892C755.431 161.887 749.465 163.59 744.195 166.83C738.924 170.07 734.532 174.736 731.454 180.365C728.376 185.993 726.718 192.39 726.645 198.92C726.572 205.45 728.086 211.888 731.038 217.594C732.449 220.786 734.359 223.693 736.684 226.19C738.778 228.381 741.166 230.222 743.769 231.649C748.384 234.592 753.568 236.349 758.918 236.784C764.267 237.218 769.638 236.318 774.611 234.153C779.584 231.989 784.026 228.619 787.59 224.305C791.155 219.991 793.745 214.85 795.16 209.283C796.575 203.715 796.777 197.872 795.749 192.207C794.721 186.542 792.492 181.208 789.235 176.622C785.977 172.036 781.78 168.321 776.97 165.766C772.159 163.211 766.865 161.885 761.501 161.892ZM750.264 185.951C751.733 184.355 753.488 183.095 755.423 182.249C757.357 181.403 759.431 180.988 761.519 181.028C763.582 181.01 765.626 181.442 767.529 182.298C769.432 183.154 771.154 184.418 772.59 186.011C775.742 189.702 777.419 194.579 777.258 199.589C777.342 202.05 776.973 204.504 776.172 206.811C775.371 209.118 774.154 211.231 772.59 213.029C771.137 214.588 769.409 215.819 767.508 216.651C765.607 217.483 763.571 217.898 761.519 217.872C759.44 217.917 757.374 217.516 755.441 216.691C753.509 215.866 751.749 214.634 750.264 213.068C748.685 211.272 747.457 209.154 746.652 206.839C745.848 204.524 745.482 202.059 745.577 199.589C745.401 194.555 747.086 189.651 750.264 185.951Z" fill="black"/>
</g>
<path d="M350.532 291.268V320.668H346.332V307.564H329.448V320.668H325.248V291.268H329.448V303.91H346.332V291.268H350.532ZM379.492 298.408V320.668H375.67V317.308C374.858 318.456 373.78 319.352 372.436 319.996C371.12 320.612 369.678 320.92 368.11 320.92C365.142 320.92 362.804 320.108 361.096 318.484C359.388 316.832 358.534 314.41 358.534 311.218V298.408H362.566V310.756C362.566 312.912 363.084 314.55 364.12 315.67C365.156 316.762 366.64 317.308 368.572 317.308C370.7 317.308 372.38 316.664 373.612 315.376C374.844 314.088 375.46 312.268 375.46 309.916V298.408H379.492ZM415.014 298.198C417.814 298.198 420.026 299.01 421.65 300.634C423.302 302.258 424.128 304.666 424.128 307.858V320.668H420.096V308.32C420.096 306.164 419.592 304.54 418.584 303.448C417.604 302.356 416.19 301.81 414.342 301.81C412.298 301.81 410.674 302.454 409.47 303.742C408.266 305.002 407.664 306.822 407.664 309.202V320.668H403.632V308.32C403.632 306.164 403.128 304.54 402.12 303.448C401.14 302.356 399.726 301.81 397.878 301.81C395.834 301.81 394.21 302.454 393.006 303.742C391.802 305.002 391.2 306.822 391.2 309.202V320.668H387.168V298.408H391.032V301.726C391.844 300.578 392.908 299.71 394.224 299.122C395.54 298.506 397.038 298.198 398.718 298.198C400.454 298.198 401.994 298.548 403.338 299.248C404.682 299.948 405.718 300.97 406.446 302.314C407.286 301.026 408.448 300.018 409.932 299.29C411.444 298.562 413.138 298.198 415.014 298.198ZM452.67 298.408V320.668H448.806V317.14C447.91 318.372 446.776 319.31 445.404 319.954C444.032 320.598 442.52 320.92 440.868 320.92C438.712 320.92 436.78 320.444 435.072 319.492C433.364 318.54 432.02 317.21 431.04 315.502C430.088 313.766 429.612 311.778 429.612 309.538C429.612 307.298 430.088 305.324 431.04 303.616C432.02 301.908 433.364 300.578 435.072 299.626C436.78 298.674 438.712 298.198 440.868 298.198C442.464 298.198 443.934 298.506 445.278 299.122C446.622 299.71 447.742 300.592 448.638 301.768V298.408H452.67ZM441.204 317.392C442.604 317.392 443.878 317.07 445.026 316.426C446.174 315.754 447.07 314.83 447.714 313.654C448.358 312.45 448.68 311.078 448.68 309.538C448.68 307.998 448.358 306.64 447.714 305.464C447.07 304.26 446.174 303.336 445.026 302.692C443.878 302.048 442.604 301.726 441.204 301.726C439.776 301.726 438.488 302.048 437.34 302.692C436.22 303.336 435.324 304.26 434.652 305.464C434.008 306.64 433.686 307.998 433.686 309.538C433.686 311.078 434.008 312.45 434.652 313.654C435.324 314.83 436.22 315.754 437.34 316.426C438.488 317.07 439.776 317.392 441.204 317.392ZM472.185 298.198C475.013 298.198 477.253 299.024 478.905 300.676C480.585 302.3 481.425 304.694 481.425 307.858V320.668H477.393V308.32C477.393 306.164 476.875 304.54 475.839 303.448C474.803 302.356 473.319 301.81 471.387 301.81C469.203 301.81 467.481 302.454 466.221 303.742C464.961 305.002 464.331 306.822 464.331 309.202V320.668H460.299V298.408H464.163V301.768C464.975 300.62 466.067 299.738 467.439 299.122C468.839 298.506 470.421 298.198 472.185 298.198ZM520.41 320.668L514.068 311.638C513.284 311.694 512.668 311.722 512.22 311.722H504.954V320.668H500.754V291.268H512.22C516.028 291.268 519.024 292.178 521.208 293.998C523.392 295.818 524.484 298.324 524.484 301.516C524.484 303.784 523.924 305.716 522.804 307.312C521.684 308.908 520.088 310.07 518.016 310.798L524.988 320.668H520.41ZM512.094 308.152C514.754 308.152 516.784 307.578 518.184 306.43C519.584 305.282 520.284 303.644 520.284 301.516C520.284 299.388 519.584 297.764 518.184 296.644C516.784 295.496 514.754 294.922 512.094 294.922H504.954V308.152H512.094ZM540.719 317.392C543.379 317.392 545.521 316.496 547.145 314.704L549.329 317.308C548.349 318.484 547.103 319.38 545.591 319.996C544.107 320.612 542.441 320.92 540.593 320.92C538.241 320.92 536.155 320.444 534.335 319.492C532.515 318.512 531.101 317.154 530.093 315.418C529.113 313.682 528.623 311.722 528.623 309.538C528.623 307.382 529.099 305.436 530.051 303.7C531.031 301.964 532.361 300.62 534.041 299.668C535.749 298.688 537.667 298.198 539.795 298.198C541.811 298.198 543.645 298.66 545.297 299.584C546.949 300.48 548.265 301.754 549.245 303.406C550.225 305.058 550.729 306.962 550.757 309.118L533.075 312.562C533.635 314.102 534.573 315.292 535.889 316.132C537.233 316.972 538.843 317.392 540.719 317.392ZM539.795 301.6C538.395 301.6 537.135 301.922 536.015 302.566C534.923 303.21 534.069 304.12 533.453 305.296C532.837 306.444 532.529 307.788 532.529 309.328V309.748L546.767 307.06C546.403 305.436 545.591 304.12 544.331 303.112C543.071 302.104 541.559 301.6 539.795 301.6ZM562.782 320.92C560.962 320.92 559.212 320.682 557.532 320.206C555.852 319.702 554.536 319.072 553.584 318.316L555.264 315.124C556.244 315.824 557.434 316.384 558.834 316.804C560.234 317.224 561.648 317.434 563.076 317.434C566.604 317.434 568.368 316.426 568.368 314.41C568.368 313.738 568.13 313.206 567.654 312.814C567.178 312.422 566.576 312.142 565.848 311.974C565.148 311.778 564.14 311.568 562.824 311.344C561.032 311.064 559.562 310.742 558.414 310.378C557.294 310.014 556.328 309.398 555.516 308.53C554.704 307.662 554.298 306.444 554.298 304.876C554.298 302.86 555.138 301.25 556.818 300.046C558.498 298.814 560.752 298.198 563.58 298.198C565.064 298.198 566.548 298.38 568.032 298.744C569.516 299.108 570.734 299.598 571.686 300.214L569.964 303.406C568.144 302.23 566.002 301.642 563.538 301.642C561.83 301.642 560.528 301.922 559.632 302.482C558.736 303.042 558.288 303.784 558.288 304.708C558.288 305.436 558.54 306.01 559.044 306.43C559.548 306.85 560.164 307.158 560.892 307.354C561.648 307.55 562.698 307.774 564.042 308.026C565.834 308.334 567.276 308.67 568.368 309.034C569.488 309.37 570.44 309.958 571.224 310.798C572.008 311.638 572.4 312.814 572.4 314.326C572.4 316.342 571.532 317.952 569.796 319.156C568.088 320.332 565.75 320.92 562.782 320.92ZM586.973 320.92C584.761 320.92 582.773 320.43 581.009 319.45C579.245 318.47 577.859 317.126 576.851 315.418C575.871 313.682 575.381 311.722 575.381 309.538C575.381 307.354 575.871 305.408 576.851 303.7C577.859 301.964 579.245 300.62 581.009 299.668C582.773 298.688 584.761 298.198 586.973 298.198C589.185 298.198 591.159 298.688 592.895 299.668C594.659 300.62 596.031 301.964 597.011 303.7C598.019 305.408 598.523 307.354 598.523 309.538C598.523 311.722 598.019 313.682 597.011 315.418C596.031 317.126 594.659 318.47 592.895 319.45C591.159 320.43 589.185 320.92 586.973 320.92ZM586.973 317.392C588.401 317.392 589.675 317.07 590.795 316.426C591.943 315.754 592.839 314.83 593.483 313.654C594.127 312.45 594.449 311.078 594.449 309.538C594.449 307.998 594.127 306.64 593.483 305.464C592.839 304.26 591.943 303.336 590.795 302.692C589.675 302.048 588.401 301.726 586.973 301.726C585.545 301.726 584.257 302.048 583.109 302.692C581.989 303.336 581.093 304.26 580.421 305.464C579.777 306.64 579.455 307.998 579.455 309.538C579.455 311.078 579.777 312.45 580.421 313.654C581.093 314.83 581.989 315.754 583.109 316.426C584.257 317.07 585.545 317.392 586.973 317.392ZM624.847 298.408V320.668H621.025V317.308C620.213 318.456 619.135 319.352 617.791 319.996C616.475 320.612 615.033 320.92 613.465 320.92C610.497 320.92 608.159 320.108 606.451 318.484C604.743 316.832 603.889 314.41 603.889 311.218V298.408H607.921V310.756C607.921 312.912 608.439 314.55 609.475 315.67C610.511 316.762 611.995 317.308 613.927 317.308C616.055 317.308 617.735 316.664 618.967 315.376C620.199 314.088 620.815 312.268 620.815 309.916V298.408H624.847ZM636.387 302.146C637.087 300.858 638.123 299.878 639.495 299.206C640.867 298.534 642.533 298.198 644.493 298.198V302.104C644.269 302.076 643.961 302.062 643.569 302.062C641.385 302.062 639.663 302.72 638.403 304.036C637.171 305.324 636.555 307.172 636.555 309.58V320.668H632.523V298.408H636.387V302.146ZM658.96 320.92C656.692 320.92 654.662 320.43 652.87 319.45C651.106 318.47 649.72 317.126 648.712 315.418C647.704 313.682 647.2 311.722 647.2 309.538C647.2 307.354 647.704 305.408 648.712 303.7C649.72 301.964 651.106 300.62 652.87 299.668C654.662 298.688 656.692 298.198 658.96 298.198C660.976 298.198 662.768 298.604 664.336 299.416C665.932 300.228 667.164 301.404 668.032 302.944L664.966 304.918C664.266 303.854 663.398 303.056 662.362 302.524C661.326 301.992 660.178 301.726 658.918 301.726C657.462 301.726 656.146 302.048 654.97 302.692C653.822 303.336 652.912 304.26 652.24 305.464C651.596 306.64 651.274 307.998 651.274 309.538C651.274 311.106 651.596 312.492 652.24 313.696C652.912 314.872 653.822 315.782 654.97 316.426C656.146 317.07 657.462 317.392 658.918 317.392C660.178 317.392 661.326 317.126 662.362 316.594C663.398 316.062 664.266 315.264 664.966 314.2L668.032 316.132C667.164 317.672 665.932 318.862 664.336 319.702C662.768 320.514 660.976 320.92 658.96 320.92ZM682.962 317.392C685.622 317.392 687.764 316.496 689.388 314.704L691.572 317.308C690.592 318.484 689.346 319.38 687.834 319.996C686.35 320.612 684.684 320.92 682.836 320.92C680.484 320.92 678.398 320.444 676.578 319.492C674.758 318.512 673.344 317.154 672.336 315.418C671.356 313.682 670.866 311.722 670.866 309.538C670.866 307.382 671.342 305.436 672.294 303.7C673.274 301.964 674.604 300.62 676.284 299.668C677.992 298.688 679.91 298.198 682.038 298.198C684.054 298.198 685.888 298.66 687.54 299.584C689.192 300.48 690.508 301.754 691.488 303.406C692.468 305.058 692.972 306.962 693 309.118L675.318 312.562C675.878 314.102 676.816 315.292 678.132 316.132C679.476 316.972 681.086 317.392 682.962 317.392ZM682.038 301.6C680.638 301.6 679.378 301.922 678.258 302.566C677.166 303.21 676.312 304.12 675.696 305.296C675.08 306.444 674.772 307.788 674.772 309.328V309.748L689.01 307.06C688.646 305.436 687.834 304.12 686.574 303.112C685.314 302.104 683.802 301.6 682.038 301.6ZM719.076 321.004C716.864 321.004 714.722 320.668 712.65 319.996C710.606 319.296 708.996 318.4 707.82 317.308L709.374 314.032C710.494 315.04 711.922 315.866 713.658 316.51C715.422 317.126 717.228 317.434 719.076 317.434C721.512 317.434 723.332 317.028 724.536 316.216C725.74 315.376 726.342 314.27 726.342 312.898C726.342 311.89 726.006 311.078 725.334 310.462C724.69 309.818 723.878 309.328 722.898 308.992C721.946 308.656 720.588 308.278 718.824 307.858C716.612 307.326 714.82 306.794 713.448 306.262C712.104 305.73 710.942 304.918 709.962 303.826C709.01 302.706 708.534 301.208 708.534 299.332C708.534 297.764 708.94 296.35 709.752 295.09C710.592 293.83 711.852 292.822 713.532 292.066C715.212 291.31 717.298 290.932 719.79 290.932C721.526 290.932 723.234 291.156 724.914 291.604C726.594 292.052 728.036 292.696 729.24 293.536L727.854 296.896C726.622 296.112 725.306 295.524 723.906 295.132C722.506 294.712 721.134 294.502 719.79 294.502C717.41 294.502 715.618 294.936 714.414 295.804C713.238 296.672 712.65 297.792 712.65 299.164C712.65 300.172 712.986 300.998 713.658 301.642C714.33 302.258 715.156 302.748 716.136 303.112C717.144 303.448 718.502 303.812 720.21 304.204C722.422 304.736 724.2 305.268 725.544 305.8C726.888 306.332 728.036 307.144 728.988 308.236C729.968 309.328 730.458 310.798 730.458 312.646C730.458 314.186 730.038 315.6 729.198 316.888C728.358 318.148 727.084 319.156 725.376 319.912C723.668 320.64 721.568 321.004 719.076 321.004ZM746.044 317.392C748.704 317.392 750.846 316.496 752.47 314.704L754.654 317.308C753.674 318.484 752.428 319.38 750.916 319.996C749.432 320.612 747.766 320.92 745.918 320.92C743.566 320.92 741.48 320.444 739.66 319.492C737.84 318.512 736.426 317.154 735.418 315.418C734.438 313.682 733.948 311.722 733.948 309.538C733.948 307.382 734.424 305.436 735.376 303.7C736.356 301.964 737.686 300.62 739.366 299.668C741.074 298.688 742.992 298.198 745.12 298.198C747.136 298.198 748.97 298.66 750.622 299.584C752.274 300.48 753.59 301.754 754.57 303.406C755.55 305.058 756.054 306.962 756.082 309.118L738.4 312.562C738.96 314.102 739.898 315.292 741.214 316.132C742.558 316.972 744.168 317.392 746.044 317.392ZM745.12 301.6C743.72 301.6 742.46 301.922 741.34 302.566C740.248 303.21 739.394 304.12 738.778 305.296C738.162 306.444 737.854 307.788 737.854 309.328V309.748L752.092 307.06C751.728 305.436 750.916 304.12 749.656 303.112C748.396 302.104 746.884 301.6 745.12 301.6ZM765.586 302.146C766.286 300.858 767.322 299.878 768.694 299.206C770.066 298.534 771.732 298.198 773.692 298.198V302.104C773.468 302.076 773.16 302.062 772.768 302.062C770.584 302.062 768.862 302.72 767.602 304.036C766.37 305.324 765.754 307.172 765.754 309.58V320.668H761.722V298.408H765.586V302.146ZM799.262 298.408L789.518 320.668H785.402L775.658 298.408H779.858L787.502 316.258L795.314 298.408H799.262ZM803.025 298.408H807.057V320.668H803.025V298.408ZM805.041 294.124C804.257 294.124 803.599 293.872 803.067 293.368C802.563 292.864 802.311 292.248 802.311 291.52C802.311 290.792 802.563 290.176 803.067 289.672C803.599 289.14 804.257 288.874 805.041 288.874C805.825 288.874 806.469 289.126 806.973 289.63C807.505 290.106 807.771 290.708 807.771 291.436C807.771 292.192 807.505 292.836 806.973 293.368C806.469 293.872 805.825 294.124 805.041 294.124ZM824.458 320.92C822.19 320.92 820.16 320.43 818.368 319.45C816.604 318.47 815.218 317.126 814.21 315.418C813.202 313.682 812.698 311.722 812.698 309.538C812.698 307.354 813.202 305.408 814.21 303.7C815.218 301.964 816.604 300.62 818.368 299.668C820.16 298.688 822.19 298.198 824.458 298.198C826.474 298.198 828.266 298.604 829.834 299.416C831.43 300.228 832.662 301.404 833.53 302.944L830.464 304.918C829.764 303.854 828.896 303.056 827.86 302.524C826.824 301.992 825.676 301.726 824.416 301.726C822.96 301.726 821.644 302.048 820.468 302.692C819.32 303.336 818.41 304.26 817.738 305.464C817.094 306.64 816.772 307.998 816.772 309.538C816.772 311.106 817.094 312.492 817.738 313.696C818.41 314.872 819.32 315.782 820.468 316.426C821.644 317.07 822.96 317.392 824.416 317.392C825.676 317.392 826.824 317.126 827.86 316.594C828.896 316.062 829.764 315.264 830.464 314.2L833.53 316.132C832.662 317.672 831.43 318.862 829.834 319.702C828.266 320.514 826.474 320.92 824.458 320.92ZM848.46 317.392C851.12 317.392 853.262 316.496 854.886 314.704L857.07 317.308C856.09 318.484 854.844 319.38 853.332 319.996C851.848 320.612 850.182 320.92 848.334 320.92C845.982 320.92 843.896 320.444 842.076 319.492C840.256 318.512 838.842 317.154 837.834 315.418C836.854 313.682 836.364 311.722 836.364 309.538C836.364 307.382 836.84 305.436 837.792 303.7C838.772 301.964 840.102 300.62 841.782 299.668C843.49 298.688 845.408 298.198 847.536 298.198C849.552 298.198 851.386 298.66 853.038 299.584C854.69 300.48 856.006 301.754 856.986 303.406C857.966 305.058 858.47 306.962 858.498 309.118L840.816 312.562C841.376 314.102 842.314 315.292 843.63 316.132C844.974 316.972 846.584 317.392 848.46 317.392ZM847.536 301.6C846.136 301.6 844.876 301.922 843.756 302.566C842.664 303.21 841.81 304.12 841.194 305.296C840.578 306.444 840.27 307.788 840.27 309.328V309.748L854.508 307.06C854.144 305.436 853.332 304.12 852.072 303.112C850.812 302.104 849.3 301.6 847.536 301.6ZM870.522 320.92C868.702 320.92 866.952 320.682 865.272 320.206C863.592 319.702 862.276 319.072 861.324 318.316L863.004 315.124C863.984 315.824 865.174 316.384 866.574 316.804C867.974 317.224 869.388 317.434 870.816 317.434C874.344 317.434 876.108 316.426 876.108 314.41C876.108 313.738 875.87 313.206 875.394 312.814C874.918 312.422 874.316 312.142 873.588 311.974C872.888 311.778 871.88 311.568 870.564 311.344C868.772 311.064 867.302 310.742 866.154 310.378C865.034 310.014 864.068 309.398 863.256 308.53C862.444 307.662 862.038 306.444 862.038 304.876C862.038 302.86 862.878 301.25 864.558 300.046C866.238 298.814 868.492 298.198 871.32 298.198C872.804 298.198 874.288 298.38 875.772 298.744C877.256 299.108 878.474 299.598 879.426 300.214L877.704 303.406C875.884 302.23 873.742 301.642 871.278 301.642C869.57 301.642 868.268 301.922 867.372 302.482C866.476 303.042 866.028 303.784 866.028 304.708C866.028 305.436 866.28 306.01 866.784 306.43C867.288 306.85 867.904 307.158 868.632 307.354C869.388 307.55 870.438 307.774 871.782 308.026C873.574 308.334 875.016 308.67 876.108 309.034C877.228 309.37 878.18 309.958 878.964 310.798C879.748 311.638 880.14 312.814 880.14 314.326C880.14 316.342 879.272 317.952 877.536 319.156C875.828 320.332 873.49 320.92 870.522 320.92Z" fill="#2286FE"/>
<defs>
<clipPath id="clip0_2082_1130">
<rect width="628.436" height="164.463" fill="white" transform="translate(286.209 102.062)"/>
</clipPath>
</defs>
</svg>
