<svg width="32" height="32" viewBox="0 0 32 32" fill="none" xmlns="http://www.w3.org/2000/svg">
<path d="M13.4922 22.7734V27.8687L16.3164 29.4749V24.3718L13.4922 22.7734Z" fill="#2286FE"/>
<path d="M16.3203 2.56055L4.48047 9.28931V22.7504L8.96436 25.296V11.8389L16.3203 7.66368L23.6206 11.8116L28.0809 9.24257L16.3203 2.56055Z" fill="#2286FE"/>
<path d="M28.1601 9.29286V22.7502L16.3203 29.4788V24.3758L23.6762 20.2006V11.8425L23.6206 11.8112L28.0809 9.24219L28.1601 9.29286Z" fill="#4D9DFC"/>
<path d="M19.1406 14.4198V17.6243L16.3203 19.2227V16.0181L19.1168 14.4082L19.1406 14.4198Z" fill="#4D9DFC"/>
<path d="M19.1169 14.403L16.3164 12.8164L13.4922 14.4147V17.6232L16.3164 19.2215V16.017L19.1169 14.403Z" fill="#2087FF"/>
</svg>
